<svg xmlns="http://www.w3.org/2000/svg" xmlns:xlink="http://www.w3.org/1999/xlink" contentStyleType="text/css" height="376px" preserveAspectRatio="none" style="width:547px;height:376px;background:#FFFFFF;" version="1.1" viewBox="0 0 547 376" width="547px" zoomAndPan="magnify"><defs/><g><line style="stroke:#181818;stroke-width:0.5;stroke-dasharray:5.0,5.0;" x1="34" x2="34" y1="36.2969" y2="341.3594"/><line style="stroke:#181818;stroke-width:0.5;stroke-dasharray:5.0,5.0;" x1="241.5" x2="241.5" y1="36.2969" y2="341.3594"/><rect fill="#E2E2F0" height="30.2969" rx="2.5" ry="2.5" style="stroke:#181818;stroke-width:0.5;" width="58" x="5" y="5"/><text fill="#000000" font-family="sans-serif" font-size="14" lengthAdjust="spacing" textLength="44" x="12" y="24.9951">Player</text><rect fill="#E2E2F0" height="30.2969" rx="2.5" ry="2.5" style="stroke:#181818;stroke-width:0.5;" width="58" x="5" y="340.3594"/><text fill="#000000" font-family="sans-serif" font-size="14" lengthAdjust="spacing" textLength="44" x="12" y="360.3545">Player</text><rect fill="#E2E2F0" height="30.2969" rx="2.5" ry="2.5" style="stroke:#181818;stroke-width:0.5;" width="81" x="201.5" y="5"/><text fill="#000000" font-family="sans-serif" font-size="14" lengthAdjust="spacing" textLength="67" x="208.5" y="24.9951">Dynoland</text><rect fill="#E2E2F0" height="30.2969" rx="2.5" ry="2.5" style="stroke:#181818;stroke-width:0.5;" width="81" x="201.5" y="340.3594"/><text fill="#000000" font-family="sans-serif" font-size="14" lengthAdjust="spacing" textLength="67" x="208.5" y="360.3545">Dynoland</text><polygon fill="#181818" points="230,63.4297,240,67.4297,230,71.4297,234,67.4297" style="stroke:#181818;stroke-width:1.0;"/><line style="stroke:#181818;stroke-width:1.0;" x1="34" x2="236" y1="67.4297" y2="67.4297"/><text fill="#000000" font-family="sans-serif" font-size="13" lengthAdjust="spacing" textLength="100" x="41" y="62.3638">Start The game</text><line style="stroke:#181818;stroke-width:1.0;" x1="242" x2="284" y1="96.5625" y2="96.5625"/><line style="stroke:#181818;stroke-width:1.0;" x1="284" x2="284" y1="96.5625" y2="109.5625"/><line style="stroke:#181818;stroke-width:1.0;" x1="243" x2="284" y1="109.5625" y2="109.5625"/><polygon fill="#181818" points="253,105.5625,243,109.5625,253,113.5625,249,109.5625" style="stroke:#181818;stroke-width:1.0;"/><text fill="#000000" font-family="sans-serif" font-size="13" lengthAdjust="spacing" textLength="100" x="249" y="91.4966">Generate maze</text><polygon fill="#181818" points="45,134.6953,35,138.6953,45,142.6953,41,138.6953" style="stroke:#181818;stroke-width:1.0;"/><line style="stroke:#181818;stroke-width:1.0;" x1="39" x2="241" y1="138.6953" y2="138.6953"/><text fill="#000000" font-family="sans-serif" font-size="13" lengthAdjust="spacing" textLength="184" x="51" y="133.6294">Display the maze with figure</text><polygon fill="#181818" points="230,163.8281,240,167.8281,230,171.8281,234,167.8281" style="stroke:#181818;stroke-width:1.0;"/><line style="stroke:#181818;stroke-width:1.0;" x1="34" x2="236" y1="167.8281" y2="167.8281"/><text fill="#000000" font-family="sans-serif" font-size="13" lengthAdjust="spacing" textLength="110" x="41" y="162.7622">Press key events</text><line style="stroke:#181818;stroke-width:1.0;" x1="242" x2="284" y1="196.9609" y2="196.9609"/><line style="stroke:#181818;stroke-width:1.0;" x1="284" x2="284" y1="196.9609" y2="209.9609"/><line style="stroke:#181818;stroke-width:1.0;" x1="243" x2="284" y1="209.9609" y2="209.9609"/><polygon fill="#181818" points="253,205.9609,243,209.9609,253,213.9609,249,209.9609" style="stroke:#181818;stroke-width:1.0;"/><text fill="#000000" font-family="sans-serif" font-size="13" lengthAdjust="spacing" textLength="291" x="249" y="191.895">verify if score is not 0 --&gt; Generate new map</text><line style="stroke:#181818;stroke-width:1.0;" x1="242" x2="284" y1="239.0938" y2="239.0938"/><line style="stroke:#181818;stroke-width:1.0;" x1="284" x2="284" y1="239.0938" y2="252.0938"/><line style="stroke:#181818;stroke-width:1.0;" x1="243" x2="284" y1="252.0938" y2="252.0938"/><polygon fill="#181818" points="253,248.0938,243,252.0938,253,256.0938,249,252.0938" style="stroke:#181818;stroke-width:1.0;"/><text fill="#000000" font-family="sans-serif" font-size="13" lengthAdjust="spacing" textLength="126" x="249" y="234.0278">Move figure in table</text><polygon fill="#181818" points="45,277.2266,35,281.2266,45,285.2266,41,281.2266" style="stroke:#181818;stroke-width:1.0;"/><line style="stroke:#181818;stroke-width:1.0;" x1="39" x2="241" y1="281.2266" y2="281.2266"/><text fill="#000000" font-family="sans-serif" font-size="13" lengthAdjust="spacing" textLength="160" x="51" y="276.1606">Display figure with event</text><line style="stroke:#181818;stroke-width:1.0;" x1="242" x2="284" y1="310.3594" y2="310.3594"/><line style="stroke:#181818;stroke-width:1.0;" x1="284" x2="284" y1="310.3594" y2="323.3594"/><line style="stroke:#181818;stroke-width:1.0;" x1="243" x2="284" y1="323.3594" y2="323.3594"/><polygon fill="#181818" points="253,319.3594,243,323.3594,253,327.3594,249,323.3594" style="stroke:#181818;stroke-width:1.0;"/><text fill="#000000" font-family="sans-serif" font-size="13" lengthAdjust="spacing" textLength="242" x="249" y="305.2935">if end of maze, store score in Json file</text><!--MD5=[71ee9fbe468b084ff0e57803239cd277]
@startuml
Player -> Dynoland : Start The game
Dynoland -> Dynoland : Generate maze
Dynoland -> Player : Display the maze with figure
Player -> Dynoland : Press key events
Dynoland -> Dynoland : verify if score is not 0 - -> Generate new map
Dynoland -> Dynoland :Move figure in table
Dynoland -> Player :  Display figure with event
Dynoland -> Dynoland : if end of maze, store score in Json file
@enduml

PlantUML version 1.2022.5(Sat Apr 30 10:55:52 UTC 2022)
(GPL source distribution)
Java Runtime: Java(TM) SE Runtime Environment
JVM: Java HotSpot(TM) 64-Bit Server VM
Default Encoding: UTF-8
Language: en
Country: US
--></g></svg>